<?xml version="1.0" encoding="utf-8"?>
<!-- Generator: Adobe Illustrator 15.1.0, SVG Export Plug-In . SVG Version: 6.00 Build 0)  -->
<!DOCTYPE svg PUBLIC "-//W3C//DTD SVG 1.1//EN" "http://www.w3.org/Graphics/SVG/1.1/DTD/svg11.dtd">
<svg version="1.1" id="Layer_1" xmlns="http://www.w3.org/2000/svg" xmlns:xlink="http://www.w3.org/1999/xlink" x="0px" y="0px"
	 width="182.353px" height="51.765px" viewBox="0 0 182.353 51.765" enable-background="new 0 0 182.353 51.765"
	 xml:space="preserve">
<g>
	<defs>
		<rect id="SVGID_1_" x="13" y="12.049" width="157.329" height="27.48"/>
	</defs>
	<clipPath id="SVGID_2_">
		<use xlink:href="#SVGID_1_"  overflow="visible"/>
	</clipPath>
	<path clip-path="url(#SVGID_2_)" fill="#414042" d="M35.386,27.81h4.22l-2.06-5.261L35.386,27.81z M71.626,27.81h4.22l-2.06-5.261
		L71.626,27.81z M89.666,24.6c0.173-0.42,0.26-0.823,0.26-1.21c0-0.388-0.093-0.787-0.28-1.2s-0.483-0.768-0.89-1.061
		c-0.407-0.293-0.95-0.439-1.63-0.439h-2.24v5.399h2.1c0.773,0,1.37-0.143,1.79-0.43S89.493,25.02,89.666,24.6 M106.566,18.829
		l-5.42,9.641v4.819h-1.94V28.47l-5.36-9.641h2.4l3.98,7.44l3.959-7.44H106.566z M89.526,27.47l3.64,5.819h-2.26l-3.42-5.34
		c-0.147,0.013-0.3,0.021-0.46,0.021h-2.14v5.319h-1.94v-14.46h3.86c0.96,0,1.827,0.17,2.6,0.51c0.773,0.341,1.387,0.848,1.84,1.521
		s0.68,1.49,0.68,2.45c0,0.827-0.183,1.627-0.55,2.399C91.009,26.482,90.393,27.069,89.526,27.47 M80.246,33.289h-2.24l-1.5-3.8
		h-5.56l-1.54,3.8h-1.92l6.32-15.06h0.12L80.246,33.289z M67.866,18.829l-6.38,15.12l-6.38-15.12h2.3l4.16,10.42l4.02-10.42H67.866z
		 M48.646,31.409h7.36v1.88h-9.3v-14.46h1.94V31.409z M44.006,33.289h-2.24l-1.5-3.8h-5.56l-1.54,3.8h-1.92l6.32-15.06h0.12
		L44.006,33.289z M19.927,26.069c0,1.04,0.216,1.977,0.65,2.81c0.433,0.833,1.046,1.49,1.84,1.971c0.793,0.479,1.723,0.72,2.79,0.72
		c0.746,0,1.403-0.11,1.97-0.33c0.566-0.22,1.036-0.477,1.41-0.77l0.84,1.739c-0.24,0.16-0.567,0.34-0.98,0.54
		c-0.414,0.2-0.897,0.37-1.45,0.511c-0.554,0.14-1.157,0.202-1.81,0.189c-1.134-0.014-2.147-0.213-3.04-0.6
		c-0.894-0.388-1.657-0.917-2.29-1.59c-0.634-0.674-1.117-1.443-1.45-2.311c-0.334-0.867-0.5-1.793-0.5-2.78
		c0-1.08,0.176-2.076,0.53-2.989c0.353-0.913,0.85-1.707,1.49-2.381c0.64-0.673,1.396-1.196,2.27-1.569
		c0.873-0.373,1.83-0.561,2.87-0.561c0.866,0,1.653,0.117,2.36,0.351c0.706,0.232,1.313,0.503,1.82,0.81l-0.78,1.82
		c-0.4-0.268-0.887-0.521-1.46-0.76c-0.574-0.24-1.2-0.36-1.88-0.36c-0.707,0-1.374,0.143-2,0.43
		c-0.627,0.287-1.18,0.681-1.66,1.181s-0.857,1.087-1.13,1.76C20.063,24.572,19.927,25.296,19.927,26.069 M110.852,12.049H13v27.48
		h97.852V12.049z"/>
</g>
<path fill="#414042" d="M157.829,33.789v-9.08l5.22,7.26h0.04l5.32-7.52v9.34h1.92v-14.92h-0.021l-7.22,10.1l-7.12-10.1h-0.02v14.92
	H157.829z M142.889,33.789h9.68v-1.88h-7.739v-4.46h6.659v-1.86h-6.659v-4.4h7.46v-1.859h-9.4V33.789z M133.729,23.049l2.061,5.26
	h-4.221L133.729,23.049z M129.35,33.789l1.539-3.8h5.561l1.5,3.8h2.24l-6.32-15.061h-0.12l-6.319,15.061H129.35z M120.809,33.789
	h1.94v-4.82l5.42-9.64h-2.38l-3.96,7.439l-3.979-7.439h-2.4l5.359,9.64V33.789z"/>
</svg>
