<svg id="Layer_1" data-name="Layer 1" xmlns="http://www.w3.org/2000/svg" viewBox="0 0 183.35 52.76"><defs><style>.cls-1{stroke:#000;stroke-miterlimit:10;}</style></defs><path class="cls-1" d="M74.31,18.76,68,33.82h2L71.5,30H77l1.5,3.8h2.3L74.43,18.76Zm-2.18,9.55,2.16-5.26,2.06,5.26Z" transform="translate(0 0)"/><polygon class="cls-1" points="100.75 26.77 96.75 19.33 94.35 19.33 99.71 28.97 99.71 33.79 101.66 33.79 101.66 28.97 107.08 19.33 104.75 19.33 100.75 26.77"/><path class="cls-1" d="M90.08,28v0a3.73,3.73,0,0,0,1.84-1.75,5.55,5.55,0,0,0,.55-2.4,4.11,4.11,0,0,0-2.52-4,6.45,6.45,0,0,0-2.6-.51H83.5V33.82h1.89V28.5H88l3.42,5.29h2.31L90.09,28Zm-.79-1.84a3.11,3.11,0,0,1-1.79.43H85.39v-5.4h2.2a2.56,2.56,0,0,1,2.52,1.5,2.93,2.93,0,0,1,.28,1.2,3.32,3.32,0,0,1-.26,1.21h.05A2.48,2.48,0,0,1,89.29,26.16Z" transform="translate(0 0)"/><polygon class="cls-1" points="66.07 19.33 62.07 29.75 57.91 19.33 55.61 19.33 61.99 34.5 68.37 19.33 66.07 19.33"/><path class="cls-1" d="M38.07,18.73,31.75,33.79h1.92L35.21,30h5.56l1.5,3.8H44.5L38.19,18.73Zm-2.18,9.58,2.16-5.26,2.06,5.26Z" transform="translate(0 0)"/><polygon class="cls-1" points="49.14 19.33 47.2 19.33 47.2 33.79 56.5 33.79 56.5 31.91 49.15 31.91 49.14 19.33"/><path class="cls-1" d="M27.71,31.77a5.46,5.46,0,0,1-2,.33,5.36,5.36,0,0,1-2.79-.72,4.86,4.86,0,0,1-1.84-2,5.84,5.84,0,0,1-.65-2.81h0a5.58,5.58,0,0,1,.41-2.17A5.47,5.47,0,0,1,22,22.64a5.41,5.41,0,0,1,1.66-1.18,4.62,4.62,0,0,1,2-.43,4.87,4.87,0,0,1,1.88.36,9.09,9.09,0,0,1,1.47.8l.78-1.82a8.49,8.49,0,0,0-1.82-.81,7.54,7.54,0,0,0-2.36-.35,7.27,7.27,0,0,0-2.87.56,6.61,6.61,0,0,0-2.27,1.57,7.13,7.13,0,0,0-1.49,2.38,7.92,7.92,0,0,0-.53,3,7.56,7.56,0,0,0,.5,2.78,6.88,6.88,0,0,0,3.79,3.88,7.73,7.73,0,0,0,3,.6,6.88,6.88,0,0,0,1.81-.19A7.57,7.57,0,0,0,29,33.28a9.64,9.64,0,0,0,1-.54L29.12,31A5.85,5.85,0,0,1,27.71,31.77Z" transform="translate(0 0)"/><polygon class="cls-1" points="132.07 28.81 136.29 28.81 134.23 23.55 132.07 28.81"/><path class="cls-1" d="M.5.5V52.26H182.85V.5ZM13.5,40V12.57h97.84V40Zm109.75-5.74h-1.94V29.5l-5.42-9.64h2.4l4,7.44,4-7.44h2.38l-5.42,9.64Zm15.2,0-1.5-3.8h-5.56l-1.54,3.8h-1.92l6.32-15.06h.12l6.32,15.06Zm14.62,0h-9.68V19.83h9.4v1.86h-7.46v4.4H152V28h-6.66v4.46h7.74Zm17.72,0h-1.92V25l-5.32,7.52-5.22-7.29v9.08H156.5V19.37l7.09,10.13,7.2-10.13Z" transform="translate(0 0)"/></svg>