<svg xmlns="http://www.w3.org/2000/svg" xmlns:xlink="http://www.w3.org/1999/xlink" viewBox="0 0 183.35 52.76"><defs><style>.cls-1{fill:none;}.cls-2{stroke:#000;stroke-miterlimit:10;}.cls-3{clip-path:url(#clip-path);}.cls-4{fill:#fff;}</style><clipPath id="clip-path" transform="translate(0.5 0.5)"><rect class="cls-1" x="13" y="12.05" width="157.33" height="27.48"/></clipPath></defs><g id="Layer_2" data-name="Layer 2"><rect class="cls-2" x="0.5" y="0.5" width="182.35" height="51.76"/></g><g id="Layer_1" data-name="Layer 1"><g class="cls-3"><path class="cls-4" d="M35.39,27.81h4.22l-2.06-5.26Zm36.24,0h4.22l-2.06-5.26Zm18-3.21a3.22,3.22,0,0,0,.26-1.21,3,3,0,0,0-.28-1.2,2.73,2.73,0,0,0-.89-1.06,2.76,2.76,0,0,0-1.63-.44H84.89v5.4H87a3.14,3.14,0,0,0,1.79-.43,2.44,2.44,0,0,0,.89-1.06m16.9-5.77-5.42,9.64v4.82H99.21V28.47l-5.36-9.64h2.4l4,7.44,4-7.44Zm-17,8.64,3.64,5.82H90.91L87.49,28,87,28H84.89v5.32H83V18.83h3.86a6.42,6.42,0,0,1,2.6.51,4.11,4.11,0,0,1,2.52,4,5.62,5.62,0,0,1-.55,2.4,3.7,3.7,0,0,1-1.85,1.76m-9.28,5.82H78l-1.5-3.8H71l-1.54,3.8H67.49l6.32-15.06h.12ZM67.87,18.83,61.49,34,55.11,18.83h2.3l4.16,10.42,4-10.42ZM48.65,31.41H56v1.88h-9.3V18.83h1.94ZM44,33.29H41.77l-1.5-3.8H34.71l-1.54,3.8H31.25l6.32-15.06h.12ZM19.93,26.07a5.91,5.91,0,0,0,.65,2.81,4.85,4.85,0,0,0,1.84,2,5.27,5.27,0,0,0,2.79.72,5.46,5.46,0,0,0,2-.33,5.83,5.83,0,0,0,1.41-.77l.84,1.74a8.77,8.77,0,0,1-1,.54,7.9,7.9,0,0,1-1.45.51,7,7,0,0,1-1.81.19,7.66,7.66,0,0,1-3-.6A6.88,6.88,0,0,1,18.41,29a7.54,7.54,0,0,1-.5-2.78,8.07,8.07,0,0,1,.53-3,7.11,7.11,0,0,1,1.49-2.38,6.7,6.7,0,0,1,2.27-1.57,7.27,7.27,0,0,1,2.87-.56,7.35,7.35,0,0,1,2.36.35,8.8,8.8,0,0,1,1.82.81l-.78,1.82A8.58,8.58,0,0,0,27,20.89a4.84,4.84,0,0,0-1.88-.36,4.67,4.67,0,0,0-2,.43,5.41,5.41,0,0,0-1.66,1.18,5.48,5.48,0,0,0-1.13,1.76,5.59,5.59,0,0,0-.41,2.17m90.92-14H13V39.53h97.85Z" transform="translate(0.5 0.5)"/></g><path class="cls-4" d="M157.83,33.79V24.71L163.05,32h0l5.32-7.52v9.34h1.92V18.87h0L163.09,29,156,18.87h0V33.79Zm-14.94,0h9.68V31.91h-7.74V27.45h6.66V25.59h-6.66v-4.4h7.46V19.33h-9.4V33.79Zm-9.16-10.74,2.06,5.26h-4.22Zm-4.38,10.74,1.54-3.8h5.56l1.5,3.8h2.24l-6.32-15.06h-.12l-6.32,15.06Zm-8.54,0h1.94V29l5.42-9.64h-2.38l-4,7.44-4-7.44h-2.4L120.81,29Z" transform="translate(0.5 0.5)"/></g></svg>