<?xml version="1.0" encoding="utf-8"?>
<!-- Generator: Adobe Illustrator 25.2.0, SVG Export Plug-In . SVG Version: 6.00 Build 0)  -->
<svg version="1.1" xmlns="http://www.w3.org/2000/svg" xmlns:xlink="http://www.w3.org/1999/xlink" x="0px" y="0px"
	 viewBox="0 0 182.4 51.8" style="enable-background:new 0 0 182.4 51.8;" xml:space="preserve">
<style type="text/css">
	.st0{fill:none;}
</style>
<g id="Layer_2">
</g>
<g id="Layer_3">
</g>
<g id="Layer_1">
	<g>
		<g>
			<g>
				<g>
					<polygon points="46.7,18.8 46.7,33.3 56,33.3 56,31.4 48.6,31.4 48.6,18.8 					"/>
					<path d="M91.4,25.7c0.4-0.8,0.6-1.6,0.6-2.4c0-1-0.2-1.8-0.7-2.5c-0.5-0.7-1.1-1.2-1.8-1.5c-0.8-0.3-1.6-0.5-2.6-0.5h-3.9v14.5
						h1.9V28H87c0.2,0,0.3,0,0.5,0l3.4,5.3h2.3l-3.6-5.8C90.4,27.1,91,26.5,91.4,25.7z M89.7,24.6c-0.2,0.4-0.5,0.8-0.9,1.1
						s-1,0.4-1.8,0.4h-2.1v-5.4h2.2c0.7,0,1.2,0.1,1.6,0.4c0.4,0.3,0.7,0.6,0.9,1.1c0.2,0.4,0.3,0.8,0.3,1.2
						C89.9,23.8,89.8,24.2,89.7,24.6z"/>
					<polygon points="110.9,0 0,0 0,51.8 110.9,51.8 110.9,39.5 13,39.5 13,12 110.9,12 					"/>
					<polygon points="101.1,33.3 101.1,28.5 106.6,18.8 104.2,18.8 100.2,26.3 96.2,18.8 93.8,18.8 99.2,28.5 99.2,33.3 					"/>
					<polygon points="67.9,18.8 65.6,18.8 61.6,29.2 57.4,18.8 55.1,18.8 61.5,33.9 					"/>
					<path d="M31.2,33.3h1.9l1.5-3.8h5.6l1.5,3.8H44l-6.3-15.1h-0.1L31.2,33.3z M39.6,27.8h-4.2l2.2-5.3L39.6,27.8z"/>
					<path d="M21.5,22.1c0.5-0.5,1-0.9,1.7-1.2c0.6-0.3,1.3-0.4,2-0.4c0.7,0,1.3,0.1,1.9,0.4c0.6,0.2,1.1,0.5,1.5,0.8l0.8-1.8
						c-0.5-0.3-1.1-0.6-1.8-0.8c-0.7-0.2-1.5-0.4-2.4-0.4c-1,0-2,0.2-2.9,0.6c-0.9,0.4-1.6,0.9-2.3,1.6c-0.6,0.7-1.1,1.5-1.5,2.4
						c-0.4,0.9-0.5,1.9-0.5,3c0,1,0.2,1.9,0.5,2.8c0.3,0.9,0.8,1.6,1.5,2.3c0.6,0.7,1.4,1.2,2.3,1.6c0.9,0.4,1.9,0.6,3,0.6
						c0.7,0,1.3,0,1.8-0.2c0.6-0.1,1-0.3,1.5-0.5c0.4-0.2,0.7-0.4,1-0.5l-0.8-1.7c-0.4,0.3-0.8,0.5-1.4,0.8c-0.6,0.2-1.2,0.3-2,0.3
						c-1.1,0-2-0.2-2.8-0.7c-0.8-0.5-1.4-1.1-1.8-2c-0.4-0.8-0.7-1.8-0.7-2.8c0-0.8,0.1-1.5,0.4-2.2C20.6,23.2,21,22.6,21.5,22.1z"
						/>
					<path d="M70.9,29.5h5.6l1.5,3.8h2.2l-6.3-15.1h-0.1l-6.3,15.1h1.9L70.9,29.5z M73.8,22.5l2.1,5.3h-4.2L73.8,22.5z"/>
				</g>
			</g>
		</g>
		<g>
			<polygon points="131.6,28.3 135.8,28.3 133.7,23 			"/>
			<path d="M110.9,0v51.8h71.5V0H110.9z M122.7,33.8h-1.9V29l-5.4-9.6h2.4l4,7.4l4-7.4h2.4l-5.4,9.6V33.8z M138,33.8l-1.5-3.8h-5.6
				l-1.5,3.8h-1.9l6.3-15.1h0.1l6.3,15.1H138z M152.6,33.8h-9.7V19.3h9.4v1.9h-7.5v4.4h6.7v1.9h-6.7v4.5h7.7V33.8z M170.3,33.8h-1.9
				v-9.3l-5.3,7.5h0l-5.2-7.3v9.1h-1.9V18.9h0l7.1,10.1l7.2-10.1h0V33.8z"/>
		</g>
	</g>
	<rect x="13" y="12" class="st0" width="97.9" height="27.5"/>
	<rect y="0" width="182.4" height="12"/>
	<rect y="39.5" width="182.4" height="12.2"/>
</g>
</svg>
